<?xml version="1.0" encoding="UTF-8"?>
<svg width="512px" height="512px" viewBox="0 0 512 512" version="1.1" xmlns="http://www.w3.org/2000/svg" xmlns:xlink="http://www.w3.org/1999/xlink">
    <!-- Generator: Sketch 43.2 (39069) - http://www.bohemiancoding.com/sketch -->
    <title>icon</title>
    <desc>Created with Sketch.</desc>
    <defs></defs>
    <g id="Page-1" stroke="none" stroke-width="1" fill="none" fill-rule="evenodd">
        <g id="icon">
            <g id="logo" transform="translate(47.000000, 1.000000)">
                <path d="M257.133317,90.1243688 C241.340896,103.148567 230.609841,121.283624 226.801014,141.384411 C239.110885,182.416141 182.856256,171.750741 191.725865,141.20911 C192.554942,134.932814 193.844531,128.725745 195.583963,122.638129 L186.113787,122.638129 C164.020266,122.638129 142.831669,113.870589 127.209176,98.2640076 C111.5868,82.6574259 102.810185,61.4904867 102.810185,39.4193156 L102.810185,0 L142.269704,0 C162.538441,0.0666657262 182.084403,7.52872471 197.231641,20.9829125 C212.378879,34.4370228 222.083773,52.9560342 224.52115,73.057403 C235.972265,61.0572776 249.7401,51.5012738 264.992476,44.9668745 C280.245046,38.4324753 296.665385,35.0552281 313.260694,35.0395209 L313.260694,70.0788479 C292.782845,70.0084563 272.925543,77.1001711 257.133317,90.1243688 Z" id="path0_fill" fill="#4B3737" fill-rule="nonzero"></path>
                <path d="M190.494858,87.5980266 L186.110489,87.5980266 C179.776994,87.5980266 173.505572,86.3517262 167.654121,83.9304867 C161.802863,81.5092471 156.486219,77.960384 152.007788,73.4865399 C147.529376,69.0126958 143.976896,63.7015209 141.553195,57.8561065 C139.129497,52.0107308 137.882037,45.745662 137.882037,39.4186757 L137.882037,35.0387452 L142.266426,35.0387452 C155.05739,35.0387452 167.324546,40.1147384 176.369127,49.1501156 C185.413707,58.1855703 190.494858,70.4401141 190.494858,83.218038 L190.494858,87.5980266 Z" id="path1_fill" fill="#219653" fill-rule="nonzero"></path>
                <path d="M225.848759,141.383383 C259.595718,127.745963 297.327056,127.745963 331.074014,141.383383 L331.074014,141.73377 C348.258833,148.641575 363.90344,158.880319 377.105819,171.859141 C390.308199,184.838156 400.808417,200.30027 407.99737,217.353468 C415.188264,234.406859 418.926287,252.713726 418.99806,271.218 C419.069833,289.72208 415.473417,308.057259 408.414431,325.164753 L355.802773,455.513384 C349.205463,471.653042 337.939019,485.459886 323.440843,495.165399 C308.944606,504.872852 291.880056,510.036844 274.427542,509.998061 C263.180495,509.959278 252.047898,507.758327 241.633032,503.517376 L209.364213,490.552129 L176.919258,502.991863 C155.360544,511.702586 131.220713,511.502852 109.810007,502.433384 C88.3991069,493.365856 71.471119,476.173232 62.7495176,454.636882 L10.1367157,324.289608 C-0.0634265121,298.95851 -2.63519963,271.202875 2.73729208,244.431947 C8.1097838,217.660825 21.1926708,193.04043 40.3786032,173.594692 C59.5647296,154.149148 84.0186171,140.725056 110.736269,134.971558 C137.454114,129.218066 165.272416,131.385711 190.773998,141.208199 C193.981481,146.405875 225.848759,150.284202 225.848759,141.383383 Z" id="path2_fill" fill="#CC5643" fill-rule="nonzero"></path>
                <path d="M261.875,187.239461 L270.994554,221.052616 C284.459488,217.466327 298.798405,219.363023 310.865023,226.326171 C322.931641,233.289513 331.740146,244.750745 335.357513,258.194578 L369.380507,249.084194 C366.390282,237.969297 361.23697,227.55211 354.215035,218.427764 C347.192905,209.303418 338.439879,201.650956 328.45604,195.907522 C318.472201,190.164107 307.453277,186.442348 296.028931,184.955053 C284.604586,183.467751 272.998868,184.244002 261.875,187.239461 Z" id="path4_fill-path" fill="#D67363"></path>
                <path d="M229.30163,424.676806 L215.05563,397.59057 L214.496963,397.59057 L196.060963,397.59057 L196.060963,424.676806 L170.501963,424.676806 L170.501963,326.803346 L214.496963,326.803346 C227.439407,326.803346 237.448852,329.828441 244.525296,335.878631 C251.694852,341.835741 255.27963,350.259468 255.27963,361.14981 C255.27963,368.503118 253.789852,374.879087 250.810296,380.277719 C247.830741,385.58327 243.501074,389.725323 237.821296,392.703878 L258.21263,424.676806 L229.30163,424.676806 Z M196.060963,377.206084 L214.63663,377.206084 C219.850852,377.206084 223.85463,375.902966 226.647963,373.29673 C229.534407,370.690494 230.97763,366.92076 230.97763,361.987529 C230.97763,357.240456 229.534407,353.610342 226.647963,351.097186 C223.85463,348.490951 219.850852,347.187833 214.63663,347.187833 L196.060963,347.187833 L196.060963,377.206084 Z M272.966085,326.803346 L350.201752,326.803346 L350.201752,347.187833 L298.525085,347.187833 L298.525085,365.478023 L345.173752,365.478023 L345.173752,385.72289 L298.525085,385.86251 L298.525085,404.292319 L351.598419,404.292319 L351.598419,424.676806 L272.966085,424.676806 L272.966085,326.803346 Z" id="path3_fill" fill="#FFFFFF" fill-rule="nonzero"></path>
            </g>
        </g>
    </g>
</svg>